<?xml version="1.0" encoding="UTF-8"?>
<svg id="Layer_2" data-name="Layer 2" xmlns="http://www.w3.org/2000/svg" viewBox="0 0 203.98 204.02">
  <defs>
    <style>
      .cls-1 {
        fill: #faf8ed;
      }
    </style>
  </defs>
  <path class="cls-1" d="M143.96,1.14c.27.22-.55.68-.55.82s.73.91,1.09,2.18c.14.47,1.5.82,1.09,2.18-.07.22-.51.34-.55.55-.12.66.12,1.52,0,2.18-.47,2.52-1.44,1.72-1.64,1.91-.2.2.2,3.07,0,3.27-.1.1-1.59-.37-1.09.82.69,1.66.19.78,0,1.64-.17.78.2,2.01,0,2.73-.08.3-1,.79-1.09,1.09-.19.65.23,1.31-.82,1.91-.35.2-1.27-.41-.82,1.36.05.2.82.59.55.82-.12.1-.57-.14-.82,0-.68.39-1.34,1.86-1.36,2.73-.22.25-.87-.8-1.09-.55-.13.14.3,1.12-.27,1.09-.31-.78-1.19-.31-1.36.27-.51,1.79-1.13,2.81-2.45,3.54-1.1.61-1.39,2.28-2.18,2.73-.26.14-.72-.1-.82,0-.09.09.11.51,0,.82-.08.24-.55.37-.55.55s.55.36.55.55-.48.32-.55.55c-.27.94.87,1.86.55,3.27-.47,2.06.15,1.6.55,3.27.35,1.48-1.46,3.72-1.09,4.09.1.1.99-.1,1.09,0,.1.1-.12.52,0,.82.1.24.51.35.55.55.15.87.1,2.88,0,3.82-.34,3.19-1.73,7.52-2.73,10.9-.12.4-1.53,1.25-1.64,1.64-.25.9.17,2.5,0,3.54.86-.79,1.73-.35,2.45-.55,1.01-.28,2.45-1.72,3.27-2.18.26-.14.72.1.82,0s-.14-.56,0-.82c.76-1.37,3.65-2.69,4.91-4.36.53-.71,1.49-3.4,1.64-3.54.1-.1.56.14.82,0,.36-.2.9-1.09,1.09-1.09.1,0,1,1.05,1.36-.27.2-.71-.54-.94-.55-1.09,0-.09.84-.55.55-1.36,2.22,1.46.43-.99.55-1.09.12-.11.99.1,1.09,0s-.14-.56,0-.82c.3-.54,1.33-1.09,1.64-1.64.14-.26-.1-.72,0-.82s.56.14.82,0c.47-.26,1.23-1.66,1.91-1.09.06.05-.31,1.64.82,1.09.26-.13.98-.93.82-1.09-.06-.06-1.64.3-1.09-.82.5-1.02,1.31-.65,1.91-.82.87-.25,4.22-3.61,5.45-3.27,1.63.45,1.23-.55,1.64-.55.18,0,.36.55.55.55.29,0,3.72-3.46,4.36-3.82.47-.26,1.1.55.82-1.36.76-.31,1.44-2.46,1.91-2.45.13,0,1.87,1.78,1.91,1.91.7,2.53-.97,1.79-1.09,1.91-.14.14.12,1.4,0,1.91-.11.48-1.35,2.08-1.64,2.73-.12.28.1.73,0,1.09-.13.46-2.08,1.47-2.45,1.36-1.31-1.35-1.17-.3-1.91.82-.34.51,1.38-.14,1.09.82-.87.34-1.71-.57-2.18-.27-.64.41-.52,1.44-1.36,1.91-.42.24-1.08-.51-.82,1.09l-1.36-1.09c-.28.7-1.31.49-1.36.55-.38.39.92,1.76.55,2.18-.25.28-.75-.91-1.09-.27-.25.5-.99.17-1.09.27-.1.11.11.96,0,1.09-.21.25-.88-.8-1.09-.55-.14.17.14,1.5,0,1.64-.95.95-.37-1.07-1.09,1.36-.45,1.52-2.06,1.79-2.18,1.91-.11.11.24,2.72-.82,2.73-.14,0-.6-.82-.82-.55-.5.61.87,2.4.55,2.73-.19.19-1.59-.49-1.09,1.09-.98.21-.38-.9-.55-1.09-.15-.17-1.03.61-1.09.82-.26.94.18,2.12-.55,3.27-.52.82-1.99.98-2.18,1.64-.12.39.12,1.25,0,1.36-.1.1-.52-.12-.82,0-.32.13-1.44,1.05-1.64,1.09-.6.13-2.3-.16-2.45,0-.13.13.13,1.5,0,1.64-.29.29-.27-.66-1.09.82-.65,1.17-1.56,1.82-2.45,2.45-1.89,1.35,0,.81.55,1.64.38.59.23,1.05.27,1.09.13.12,1.39-.09,1.91,0,.58.1,1.5.39,2.18.55s3,.1,3.82,0c.2-.02.33-.5.55-.55.52-.1,1.78.13,1.91,0,.1-.1-.1-.99,0-1.09s.56.14.82,0c.29-.16,3.42-2.79,3.54-3,.55-.97.55-.66,1.09-1.64.44-.79,4.36-5.27,5.18-5.72.26-.14.72.1.82,0s-.14-.56,0-.82c.81-1.42,3.35-1.55,4.63-1.91.41-.11.8-1.32,1.64-1.09.23.06.37.55.55.55s.31-.45.55-.55c1.2-.48.71.99.82,1.09.45.45,1.29-.53,1.36-.55,1.88-.43,2.56,1.09,2.73,1.09.18,0,.36-.54.55-.55.2,0,1.61,1.41,2.73,1.09.23-.07.37-.55.55-.55s.36.54.55.55c.14,0,.6-.82.82-.55.11.13-.11.96,0,1.09.15.18,1.8-1.09,1.91-1.09.52,0,.08.64,2.18,0,.95-.29,1.79.69,1.91.55.11-.13-.1-.99,0-1.09.13-.13,1.39.1,1.91,0,.47-.1,2.21-.96,2.73-1.09.72-.18,1.63.38,2.18-.55l.82,1.09,1.36-.55c.78-.11-.54-.86-.27-1.09.47-.41,1.1.61,1.64.27,1.43-.91,2.62-.71,2.73-.82.07-.07-.06-1.39.82-1.64,1.23-.34,1.01.07,2.45-.82.73-.45,1.53-.19,1.64-.27.25-.22-.8-.87-.55-1.09.14-.13,1.12.3,1.09-.27-.91-.38-.03-1.35.27-1.36.09,0,.86.95,1.64.55.28.7,1.3.49,1.36.55.1.1-.12.52,0,.82.21.5,1.52,2.02,1.09,2.45-.16.16-1.6-.62-1.09,1.36.05.2.82.59.55.82-.13.11-.99-.1-1.09,0-.12.12.12.97,0,1.36-.34,1.16-2.14,1.66-3,1.91-.38.11-1.38,1.64-1.64,1.64-.18,0-.33-.5-.55-.55-1.84-.38-1.15.44-1.36.82-.82,1.44-2.95.54-3.27.82-.14.12.95,1.24.55,1.64-.14.14-1.5-.14-1.64,0-.1.1.14.56,0,.82-.7,1.23-1.63.59-2.45.82-.24.07-1.39,1.02-1.64,1.09-.72.21-.91-.75-1.64-.55-.3.09-.79,1.01-1.09,1.09-1.09.3-3.4.26-4.36,0-.22-.06-.36-.54-.55-.55-.09,0-.86.95-1.64.55-.78.11.54.85.27,1.09-.34.3-1.26-.47-1.91-.55-1.03-.12-3.39-.16-4.36,0-.21.03-.36.55-.55.55s-.32-.48-.55-.55c-.8-.22-3.26,2.13-4.63,1.64-.21.98.91.38,1.09.55.25.23-.45.6-.55.82-.13.29.1.72,0,.82-.14.14-1.47-.14-1.64,0-.25.21.8.88.55,1.09-.12.1-.57-.14-.82,0-1.22.7-.09,1.64-2.18,2.73s-.9.53-1.36,1.91c-.37,1.1-5.72,6.26-6.27,6.27-.14,0-.6-.82-.82-.55-.11.13.1.99,0,1.09-.13.13-1.5-.13-1.64,0-.1.1.14.56,0,.82-.78,1.39-1.27.27-1.36.27-.14,0-1.55,1.5-2.18,1.64-1.08.23-2.09-.16-3.27.55-.63.37-1.25,1.43-1.91,1.91l3,1.91c1.72-.05,3.04.88,4.91.55,2.32-.41,2.54-.11,4.91.55.49.14,2.21-.95,2.73-1.09.26-.07,1.31-.05,1.36,0,.15.14-.43,1.31.55,1.09-.52-3.52,1.97-.25,3-.55.36-.1,1.15-1.33,1.64-1.64.57-.03.15.94.27,1.09.25.31,1.18-1.09,1.36-1.09s.36.55.55.55.36-.55.55-.55c.31,0-.19.51,1.09,0,1.49-.6.15,1.65,1.36,1.64l.82-2.18c.37.86,1.78.41,1.91.55.39.4-1.09,2.3,2.18,1.64l-1.64-.82c1.55-2.08,2.38.1,3,.27.71.2.95-.55,1.09-.55.26,0,4.45,1.45,4.63,1.64.3.3-.75.93,1.91,1.64,1.97.53,4.12.23,6,.55.36.06.39,1.05,1.09,0l3-.55c-.43.95.55,1.81.55,1.91,0,.13-1.77,1.91-1.91,1.91s-.6-.82-.82-.55c-.11.13.1.99,0,1.09-.11.11-.96-.11-1.36,0-.91.25-2.56,1.64-2.73,1.64-.18,0-.35-.53-.55-.55-.1,0-1.07,1.09-1.91.55-.14-.09.43-1.97-.82-.55-.57.03-.15-.95-.27-1.09-.55-.6-1.8,1.09-1.91,1.09-.38,0-2.56-3.47-2.45-.55-.56.06-1.13-1.09-1.36-1.09-.08,0-.9,1-1.36.55-.07-.07.06-1.39-.82-1.64-1.29-.35-2.32.8-3.82.55-2.63-.45-1.76.13-3.27.55s-2.9-.67-3-.55c-.11.13.1.99,0,1.09-.09.09-.51-.11-.82,0-.24.08-.37.55-.55.55s-.33-.5-.55-.55c-2.08-.44-1.08,1.31-2.18,1.64-1.28.37-1.28-1.55-1.36-1.64-.68-.68-2.35,1.77-3,2.18-.11.07-.37-.08-.55,0-.24.11-.38.55-.55.55-.18,0-.36-.55-.55-.55s-.36.55-.55.55c-.2,0-.89-1.09-1.09-1.09s-.79,1.01-1.09,1.09c-.59.16-1.6-.82-2.18-1.09-.27-.13-.73.1-1.09,0-.3-.09-.79-1.01-1.09-1.09-.12-.03-1.75.43-2.18.55-.89.24-1.94.28-3.27.55-.52.1-1.75-.14-1.91,0-.26.22.75.66.55,1.36-.06.22-.49.33-.55.55-.22.8.78,1.08,1.09,1.64.14.26-.1.72,0,.82s.99-.1,1.09,0-.14.56,0,.82c.23.42,2.5,2.63,3,3,.11.08.42-.09.55,0,.55.37.87,1.3,1.64,1.09.23-.06.37-.55.55-.55s.36.55.55.55.36-.55.55-.55c.23,0,3.53,1.17,3.82,1.09,2.05-.56,4.25-.23,7.09-1.09.71-.22.95.34,2.18,0,.72-.2.84.47,1.09.55.72.21.91-.75,1.64-.55.21.06.33.48.55.55.69.21.84.18,1.64.55s4.63,2.13,4.63,3c0,.14-.82.6-.55.82.12.1.56-.14.82,0,1.52.85,2.6,3.78,3,5.18.37,1.31,1.57.19,1.64.27.95,1.15,1.4,3.15,3,3.82,1.97.83,3.07,2.59,5.45,3.27.47.13,1.85,2.01,3,1.64-1.39,1.95.94.17.55,2.18l1.09-1.09c.81-.21.63,1.64,1.36,1.64.17,0,.31-.45.55-.55,1.35-.54.61,1.42.82,1.64.42.45,1.26-.51,1.36-.55,1.16-.34,2.06.93,2.73,1.09,1.09.26,2.25-.7,1.91,1.09l.55-1.09c.64.26,1.78-.93,2.18-.55.06.05-.15,1.08.55,1.36-.27,1.07.84,1.68.55,2.73-.08.28-.88.71-1.09,1.09-.14.25.1.7,0,.82-.22.27-.68-.55-.82-.55s-.91.73-2.18,1.09c-.47.14-.82,1.5-2.18,1.09-.22-.07-.34-.51-.55-.55-.66-.12-1.52.12-2.18,0-2.52-.47-1.72-1.44-1.91-1.64-.2-.2-3.07.2-3.27,0-.1-.1.37-1.59-.82-1.09-1.66.69-.78.19-1.64,0-.78-.17-2.01.2-2.73,0-.3-.08-.79-1-1.09-1.09-.65-.19-1.31.23-1.91-.82-.2-.35.41-1.27-1.36-.82-.2.05-.59.82-.82.55-.1-.12.14-.57,0-.82-.39-.68-1.86-1.34-2.73-1.36-.25-.22.8-.87.55-1.09-.14-.13-1.12.3-1.09-.27.78-.31.31-1.19-.27-1.36-1.79-.51-2.81-1.13-3.54-2.45-.61-1.1-2.28-1.39-2.73-2.18-.14-.26.1-.72,0-.82-.09-.09-.51.11-.82,0-.24-.08-.37-.55-.55-.55s-.36.55-.55.55-.32-.48-.55-.55c-.94-.27-1.86.87-3.27.55-2.06-.47-1.6.15-3.27.55-1.48.35-3.72-1.46-4.09-1.09-.1.1.1.99,0,1.09-.1.1-.52-.12-.82,0-.24.1-.35.51-.55.55-.87.15-2.88.1-3.82,0-3.19-.34-7.52-1.73-10.9-2.73-.4-.12-1.25-1.53-1.64-1.64-.9-.25-2.5.17-3.54,0,.79.86.35,1.73.55,2.45.28,1.01,1.72,2.45,2.18,3.27.14.26-.1.72,0,.82s.56-.14.82,0c1.37.76,2.69,3.65,4.36,4.91.71.53,3.4,1.49,3.54,1.64.1.1-.14.56,0,.82.2.36,1.09.9,1.09,1.09,0,.1-1.05,1,.27,1.36.71.2.94-.54,1.09-.55.09,0,.55.84,1.36.55-1.46,2.22.99.43,1.09.55.11.12-.1.99,0,1.09s.56-.14.82,0c.54.3,1.09,1.33,1.64,1.64.26.14.72-.1.82,0s-.14.56,0,.82c.26.47,1.66,1.23,1.09,1.91-.05.06-1.64-.31-1.09.82.13.26.93.98,1.09.82.06-.06-.3-1.64.82-1.09,1.02.5.65,1.31.82,1.91.25.87,3.61,4.22,3.27,5.45-.45,1.63.55,1.23.55,1.64,0,.18-.54.36-.55.55,0,.29,3.46,3.72,3.82,4.36.26.47-.55,1.1,1.36.82.31.76,2.45,1.44,2.45,1.91,0,.13-1.78,1.87-1.91,1.91-2.53.7-1.79-.97-1.91-1.09-.14-.14-1.4.12-1.91,0-.48-.11-2.08-1.35-2.73-1.64-.28-.12-.73.1-1.09,0-.46-.13-1.47-2.08-1.36-2.45,1.35-1.31.3-1.17-.82-1.91-.51-.34.14,1.38-.82,1.09-.34-.87.57-1.71.27-2.18-.41-.64-1.44-.52-1.91-1.36-.24-.42.51-1.08-1.09-.82l1.09-1.36c-.7-.28-.49-1.31-.55-1.36-.39-.38-1.76.92-2.18.55-.28-.25.91-.75.27-1.09-.5-.25-.17-.99-.27-1.09-.11-.1-.96.11-1.09,0-.25-.21.8-.88.55-1.09-.17-.14-1.5.14-1.64,0-.95-.95,1.07-.37-1.36-1.09-1.52-.45-1.79-2.06-1.91-2.18-.11-.11-2.72.24-2.73-.82,0-.14.82-.6.55-.82-.61-.5-2.4.87-2.73.55-.19-.19.49-1.6-1.09-1.09-.21-.98.9-.38,1.09-.55.17-.15-.61-1.03-.82-1.09-.94-.26-2.12.18-3.27-.55-.82-.52-.98-1.99-1.64-2.18-.39-.12-1.25.12-1.36,0-.1-.1.12-.52,0-.82-.13-.32-1.05-1.44-1.09-1.64-.13-.6.16-2.3,0-2.45-.13-.13-1.5.13-1.64,0-.1-.1.1-.99,0-1.09s-1.96-.78-2.45-1.09c-.85-.54-.78-1.62-1.64-2.18-.48.41-.27,1.18-1.09,1.64-.26.14-.72-.1-.82,0-.12.12.09,1.39,0,1.91-.1.58-.39,1.5-.55,2.18s-.1,3,0,3.82c.02.2.5.33.55.55.1.52-.13,1.78,0,1.91.1.1.99-.1,1.09,0s-.14.56,0,.82c.16.29,2.79,3.43,3,3.54.97.55.66.55,1.64,1.09.79.44,5.27,4.36,5.72,5.18.14.26-.1.72,0,.82s.56-.14.82,0c1.42.81,1.55,3.35,1.91,4.63.11.41,1.32.8,1.09,1.64-.06.23-.55.37-.55.55s.45.31.55.55c.48,1.2-.99.71-1.09.82-.45.45.53,1.29.55,1.36.43,1.88-1.09,2.56-1.09,2.73,0,.18.54.36.55.55,0,.2-1.41,1.62-1.09,2.73.07.23.55.37.55.55s-.54.36-.55.55c0,.14.82.6.55.82-.13.11-.96-.11-1.09,0-.18.15,1.09,1.8,1.09,1.91,0,.52-.64.08,0,2.18.29.95-.69,1.79-.55,1.91.13.11.99-.1,1.09,0,.13.13-.1,1.39,0,1.91.1.47.96,2.21,1.09,2.73.18.72-.38,1.63.55,2.18l-1.09.82.55,1.36c.11.78.86-.54,1.09-.27.41.47-.61,1.1-.27,1.64.91,1.43.71,2.62.82,2.73.07.07,1.39-.06,1.64.82.34,1.23-.07,1.01.82,2.45.45.73.19,1.53.27,1.64.22.25.87-.8,1.09-.55.13.14-.3,1.12.27,1.09.38-.91,1.35-.03,1.36.27,0,.09-.95.86-.55,1.64-.7.28-.49,1.3-.55,1.36-.1.1-.52-.12-.82,0-.5.21-2.02,1.52-2.45,1.09-.16-.16.62-1.6-1.36-1.09-.2.05-.59.82-.82.55-.11-.13.1-.99,0-1.09-.12-.12-.97.12-1.36,0-1.16-.34-1.66-2.14-1.91-3-.11-.38-1.64-1.38-1.64-1.64,0-.18.5-.33.55-.55.38-1.84-.44-1.15-.82-1.36-1.44-.82-.54-2.95-.82-3.27-.12-.14-1.24.95-1.64.55-.14-.14.14-1.5,0-1.64-.1-.1-.56.14-.82,0-1.23-.7-.59-1.63-.82-2.45-.07-.24-1.02-1.39-1.09-1.64-.21-.72.75-.91.55-1.64-.09-.3-1.01-.79-1.09-1.09-.3-1.09-.26-3.4,0-4.36.06-.22.53-.36.55-.55,0-.09-.95-.86-.55-1.64-.11-.78-.85.54-1.09.27-.3-.34.47-1.26.55-1.91.12-1.03.16-3.39,0-4.36-.03-.21-.55-.36-.55-.55s.48-.32.55-.55c.22-.8-2.13-3.26-1.64-4.63-.98-.21-.38.91-.55,1.09-.23.25-.6-.45-.82-.55-.29-.13-.72.1-.82,0-.14-.14.14-1.47,0-1.64-.21-.25-.88.8-1.09.55-.1-.12.14-.57,0-.82-.7-1.22-1.63-.09-2.73-2.18s-.53-.9-1.91-1.36c-1.1-.37-6.26-5.73-6.27-6.27,0-.14.82-.6.55-.82-.13-.11-.99.1-1.09,0-.13-.13.13-1.5,0-1.64-.1-.1-.56.14-.82,0-1.39-.78-.27-1.27-.27-1.36,0-.14-1.5-1.55-1.64-2.18-.23-1.08.16-2.09-.55-3.27-.37-.63-1.43-1.25-1.91-1.91l-1.91,3c.05,1.72-.88,3.04-.55,4.91.41,2.32.11,2.54-.55,4.91-.14.49.95,2.21,1.09,2.73.07.26.05,1.31,0,1.36-.14.15-1.31-.43-1.09.55,3.52-.52.25,1.97.55,3,.1.36,1.33,1.15,1.64,1.64.03.57-.94.15-1.09.27-.31.25,1.09,1.18,1.09,1.36s-.55.36-.55.55.55.36.55.55c0,.31-.51-.19,0,1.09.6,1.49-1.65.15-1.64,1.36l2.18.82c-.86.37-.41,1.78-.55,1.91-.4.39-2.3-1.09-1.64,2.18l.82-1.64c2.08,1.55-.1,2.38-.27,3-.2.71.55.95.55,1.09,0,.26-1.45,4.45-1.64,4.63-.3.3-.93-.75-1.64,1.91-.53,1.97-.23,4.12-.55,6-.06.36-1.05.39,0,1.09l.55,3c-.95-.43-1.81.55-1.91.55-.13,0-1.91-1.77-1.91-1.91s.82-.6.55-.82c-.13-.11-.99.1-1.09,0-.11-.11.11-.96,0-1.36-.25-.91-1.64-2.56-1.64-2.73,0-.18.53-.35.55-.55,0-.1-1.09-1.07-.55-1.91.09-.14,1.97.43.55-.82-.03-.57.95-.15,1.09-.27.6-.55-1.09-1.8-1.09-1.91,0-.38,3.47-2.56.55-2.45-.06-.56,1.09-1.13,1.09-1.36,0-.08-1-.9-.55-1.36.07-.07,1.39.06,1.64-.82.35-1.29-.8-2.32-.55-3.82.45-2.63-.13-1.76-.55-3.27s.67-2.9.55-3c-.13-.11-.99.1-1.09,0-.09-.09.11-.51,0-.82-.08-.24-.55-.37-.55-.55s.5-.33.55-.55c.44-2.08-1.31-1.08-1.64-2.18-.37-1.28,1.55-1.28,1.64-1.36.68-.68-1.77-2.35-2.18-3-.07-.11.08-.37,0-.55-.11-.24-.55-.38-.55-.55,0-.18.55-.36.55-.55s-.55-.36-.55-.55c0-.2,1.09-.89,1.09-1.09s-1.01-.79-1.09-1.09c-.16-.59.82-1.6,1.09-2.18.13-.27-.1-.73,0-1.09.09-.3,1.01-.79,1.09-1.09.03-.12-.43-1.76-.55-2.18-.24-.89-.28-1.94-.55-3.27-.1-.52.14-1.75,0-1.91-.22-.26-.66.75-1.36.55-.22-.06-.33-.49-.55-.55-.8-.22-1.08.78-1.64,1.09-.26.14-.72-.1-.82,0s.1.99,0,1.09-.56-.14-.82,0c-.42.23-2.63,2.5-3,3-.08.11.09.42,0,.55-.37.55-1.3.88-1.09,1.64.06.23.55.37.55.55s-.55.36-.55.55.55.36.55.55c0,.23-1.17,3.53-1.09,3.82.56,2.05.23,4.25,1.09,7.09.22.71-.34.95,0,2.18.2.72-.47.84-.55,1.09-.21.72.75.91.55,1.64-.06.21-.48.33-.55.55-.21.69-.18.84-.55,1.64s-2.13,4.63-3,4.63c-.14,0-.6-.82-.82-.55-.1.12.14.56,0,.82-.85,1.52-3.78,2.6-5.18,3-1.31.37-.19,1.57-.27,1.64-1.15.95-3.15,1.4-3.82,3-.83,1.97-2.59,3.07-3.27,5.45-.13.47-2.01,1.85-1.64,3-1.95-1.39-.17.94-2.18.55l1.09,1.09c.21.81-1.64.63-1.64,1.36,0,.17.45.31.55.55.54,1.35-1.42.61-1.64.82-.45.42.51,1.26.55,1.36.34,1.16-.93,2.06-1.09,2.73-.26,1.09.7,2.25-1.09,1.91l1.09.55c-.26.64.93,1.78.55,2.18-.05.06-1.08-.15-1.36.55-1.07-.27-1.68.84-2.73.55-.28-.08-.71-.88-1.09-1.09-.25-.14-.7.1-.82,0-.27-.22.55-.68.55-.82s-.73-.91-1.09-2.18c-.14-.47-1.5-.82-1.09-2.18.07-.22.51-.34.55-.55.12-.66-.12-1.52,0-2.18.47-2.52,1.44-1.72,1.64-1.91.2-.2-.2-3.07,0-3.27.1-.1,1.59.37,1.09-.82-.69-1.66-.19-.78,0-1.64.17-.78-.2-2.01,0-2.73.08-.3,1-.79,1.09-1.09.19-.65-.23-1.31.82-1.91.35-.2,1.27.41.82-1.36-.05-.2-.82-.59-.55-.82.12-.1.57.14.82,0,.68-.39,1.34-1.86,1.36-2.73.22-.25.87.8,1.09.55.13-.14-.3-1.12.27-1.09.31.78,1.19.31,1.36-.27.51-1.79,1.13-2.81,2.45-3.54,1.1-.61,1.39-2.28,2.18-2.73.26-.14.72.1.82,0,.09-.09-.11-.51,0-.82.08-.24.55-.37.55-.55s-.55-.36-.55-.55.48-.32.55-.55c.27-.94-.87-1.86-.55-3.27.47-2.06-.15-1.6-.55-3.27-.35-1.48,1.46-3.72,1.09-4.09-.1-.1-.99.1-1.09,0s.12-.52,0-.82c-.1-.24-.51-.35-.55-.55-.15-.87-.1-2.88,0-3.82.34-3.19,1.73-7.52,2.73-10.9.12-.4,1.53-1.25,1.64-1.64.25-.9-.17-2.5,0-3.54-.86.79-1.73.35-2.45.55-1.01.28-2.45,1.72-3.27,2.18-.26.14-.72-.1-.82,0s.14.56,0,.82c-.76,1.37-3.65,2.69-4.91,4.36-.53.71-1.49,3.4-1.64,3.54-.1.1-.56-.14-.82,0-.36.2-.9,1.09-1.09,1.09-.1,0-1-1.05-1.36.27-.2.71.54.94.55,1.09,0,.09-.84.55-.55,1.36-2.22-1.46-.43.99-.55,1.09-.12.11-.99-.1-1.09,0s.14.56,0,.82c-.3.54-1.33,1.09-1.64,1.64-.14.26.1.72,0,.82s-.56-.14-.82,0c-.47.26-1.23,1.66-1.91,1.09-.06-.05.31-1.64-.82-1.09-.26.13-.98.93-.82,1.09.06.06,1.64-.3,1.09.82-.5,1.02-1.31.65-1.91.82-.87.25-4.22,3.61-5.45,3.27-1.63-.45-1.23.55-1.64.55-.18,0-.36-.55-.55-.55-.29,0-3.72,3.46-4.36,3.82-.47.26-1.1-.55-.82,1.36-.76.31-1.44,2.46-1.91,2.45-.13,0-1.87-1.78-1.91-1.91-.7-2.53.97-1.79,1.09-1.91.14-.14-.12-1.4,0-1.91.11-.48,1.35-2.08,1.64-2.73.12-.28-.1-.73,0-1.09.13-.46,2.08-1.47,2.45-1.36,1.31,1.35,1.17.3,1.91-.82.34-.51-1.38.14-1.09-.82.87-.34,1.71.57,2.18.27.64-.41.52-1.44,1.36-1.91.42-.24,1.08.51.82-1.09l1.36,1.09c.28-.7,1.31-.49,1.36-.55.38-.39-.92-1.76-.55-2.18.25-.28.75.91,1.09.27.25-.5.99-.17,1.09-.27.1-.11-.11-.96,0-1.09.21-.25.88.8,1.09.55.14-.17-.14-1.5,0-1.64.95-.95.37,1.07,1.09-1.36.45-1.52,2.06-1.79,2.18-1.91.11-.11-.24-2.72.82-2.73.14,0,.6.82.82.55.5-.61-.87-2.4-.55-2.73.19-.19,1.59.49,1.09-1.09.98-.21.38.9.55,1.09.15.17,1.03-.61,1.09-.82.26-.94-.18-2.12.55-3.27.52-.82,1.99-.98,2.18-1.64.12-.39-.12-1.25,0-1.36.1-.1.52.12.82,0,.32-.13,1.44-1.05,1.64-1.09.6-.13,2.3.16,2.45,0,.13-.13-.13-1.5,0-1.64.1-.1.99.1,1.09,0s.78-1.96,1.09-2.45c.54-.85,1.62-.78,2.18-1.64-.41-.48-1.18-.27-1.64-1.09-.14-.26.1-.72,0-.82-.12-.12-1.39.09-1.91,0-.58-.1-1.5-.39-2.18-.55s-3-.1-3.82,0c-.2.02-.33.5-.55.55-.52.1-1.78-.13-1.91,0-.1.1.1.99,0,1.09s-.56-.14-.82,0c-.29.16-3.42,2.79-3.54,3-.55.97-.55.66-1.09,1.64-.44.79-4.36,5.27-5.18,5.72-.26.14-.72-.1-.82,0s.14.56,0,.82c-.81,1.42-3.35,1.55-4.63,1.91-.41.11-.8,1.32-1.64,1.09-.23-.06-.37-.55-.55-.55s-.31.45-.55.55c-1.2.48-.71-.99-.82-1.09-.45-.45-1.29.53-1.36.55-1.88.43-2.56-1.09-2.73-1.09-.18,0-.36.54-.55.55-.2,0-1.61-1.41-2.73-1.09-.23.07-.37.55-.55.55s-.36-.54-.55-.55c-.14,0-.6.82-.82.55-.11-.13.11-.96,0-1.09-.15-.18-1.8,1.09-1.91,1.09-.52,0-.08-.64-2.18,0-.95.29-1.79-.69-1.91-.55-.11.13.1.99,0,1.09-.13.13-1.39-.1-1.91,0-.47.1-2.21.96-2.73,1.09-.72.18-1.63-.38-2.18.55l-.82-1.09-1.36.55c-.78.11.54.86.27,1.09-.47.41-1.1-.61-1.64-.27-1.43.91-2.62.71-2.73.82-.07.07.06,1.39-.82,1.64-1.23.34-1.01-.07-2.45.82-.73.45-1.53.19-1.64.27-.25.22.8.87.55,1.09-.14.13-1.12-.3-1.09.27.91.38.03,1.35-.27,1.36-.09,0-.86-.95-1.64-.55-.28-.7-1.3-.49-1.36-.55-.1-.1.12-.52,0-.82-.21-.5-1.52-2.02-1.09-2.45.16-.16,1.6.62,1.09-1.36-.05-.2-.82-.59-.55-.82.13-.11.99.1,1.09,0,.12-.12-.12-.97,0-1.36.34-1.16,2.14-1.66,3-1.91.38-.11,1.38-1.64,1.64-1.64.18,0,.33.5.55.55,1.84.38,1.15-.44,1.36-.82.82-1.44,2.95-.54,3.27-.82.14-.12-.95-1.24-.55-1.64.14-.14,1.5.14,1.64,0,.1-.1-.14-.56,0-.82.7-1.23,1.63-.59,2.45-.82.24-.07,1.39-1.02,1.64-1.09.72-.21.91.75,1.64.55.3-.09.79-1.01,1.09-1.09,1.09-.3,3.4-.26,4.36,0,.22.06.36.54.55.55.09,0,.86-.95,1.64-.55.78-.11-.54-.85-.27-1.09.34-.3,1.26.47,1.91.55,1.03.12,3.39.16,4.36,0,.21-.03.36-.55.55-.55s.32.48.55.55c.8.22,3.26-2.13,4.63-1.64.21-.98-.91-.38-1.09-.55-.25-.23.45-.6.55-.82.13-.29-.1-.72,0-.82.14-.14,1.47.14,1.64,0,.25-.21-.8-.88-.55-1.09.12-.1.57.14.82,0,1.22-.7.09-1.64,2.18-2.73s.9-.53,1.36-1.91c.37-1.1,5.72-6.26,6.27-6.27.14,0,.6.82.82.55.11-.13-.1-.99,0-1.09.13-.13,1.5.13,1.64,0,.1-.1-.14-.56,0-.82.78-1.39,1.27-.27,1.36-.27.14,0,1.55-1.5,2.18-1.64,1.08-.23,2.09.16,3.27-.55.63-.37,1.25-1.43,1.91-1.91l-3-1.91c-1.72.05-3.04-.88-4.91-.55-2.32.41-2.54.11-4.91-.55-.49-.14-2.21.95-2.73,1.09-.26.07-1.31.05-1.36,0-.15-.14.43-1.31-.55-1.09.52,3.52-1.97.25-3,.55-.36.1-1.15,1.33-1.64,1.64-.57.03-.15-.94-.27-1.09-.25-.31-1.18,1.09-1.36,1.09s-.36-.55-.55-.55-.36.55-.55.55c-.31,0,.19-.51-1.09,0-1.49.6-.15-1.65-1.36-1.64l-.82,2.18c-.37-.86-1.78-.41-1.91-.55-.39-.4,1.09-2.3-2.18-1.64l1.64.82c-1.55,2.08-2.38-.1-3-.27-.71-.2-.95.55-1.09.55-.26,0-4.45-1.45-4.63-1.64-.3-.3.75-.93-1.91-1.64-1.97-.53-4.12-.23-6-.55-.36-.06-.39-1.05-1.09,0l-3,.55c.43-.95-.55-1.81-.55-1.91,0-.13,1.77-1.91,1.91-1.91s.6.82.82.55c.11-.13-.1-.99,0-1.09.11-.11.96.11,1.36,0,.91-.25,2.56-1.64,2.73-1.64.18,0,.35.53.55.55.1,0,1.07-1.09,1.91-.55.14.09-.43,1.97.82.55.57-.03.15.95.27,1.09.55.6,1.8-1.09,1.91-1.09.38,0,2.56,3.47,2.45.55.56-.06,1.13,1.09,1.36,1.09.08,0,.9-1,1.36-.55.07.07-.06,1.39.82,1.64,1.29.35,2.32-.8,3.82-.55,2.63.45,1.76-.13,3.27-.55s2.9.67,3,.55c.11-.13-.1-.99,0-1.09.09-.09.51.11.82,0,.24-.08.37-.55.55-.55s.33.5.55.55c2.08.44,1.08-1.31,2.18-1.64,1.28-.37,1.28,1.55,1.36,1.64.68.68,2.35-1.77,3-2.18.11-.07.37.08.55,0,.24-.11.38-.55.55-.55.18,0,.36.55.55.55s.36-.55.55-.55c.2,0,.89,1.09,1.09,1.09s.79-1.01,1.09-1.09c.59-.16,1.6.82,2.18,1.09.27.13.73-.1,1.09,0,.3.09.79,1.01,1.09,1.09.12.03,1.75-.43,2.18-.55.89-.24,1.94-.28,3.27-.55.52-.1,1.75.14,1.91,0,.26-.22-.75-.66-.55-1.36.06-.22.49-.33.55-.55.22-.8-.78-1.08-1.09-1.64-.14-.26.1-.72,0-.82s-.99.1-1.09,0,.14-.56,0-.82c-.23-.42-2.5-2.63-3-3-.11-.08-.42.09-.55,0-.55-.37-.87-1.3-1.64-1.09-.23.06-.37.55-.55.55s-.36-.55-.55-.55-.36.55-.55.55c-.23,0-3.53-1.17-3.82-1.09-2.05.56-4.25.23-7.09,1.09-.71.22-.95-.34-2.18,0-.72.2-.84-.47-1.09-.55-.72-.21-.91.75-1.64.55-.21-.06-.33-.48-.55-.55-.69-.21-.84-.18-1.64-.55s-4.63-2.13-4.63-3c0-.14.82-.6.55-.82-.12-.1-.56.14-.82,0-1.52-.85-2.6-3.78-3-5.18-.37-1.31-1.57-.19-1.64-.27-.95-1.15-1.4-3.15-3-3.82-1.97-.83-3.07-2.59-5.45-3.27-.47-.13-1.85-2.01-3-1.64,1.39-1.95-.94-.17-.55-2.18l-1.09,1.09c-.81.21-.63-1.64-1.36-1.64-.17,0-.31.45-.55.55-1.35.54-.61-1.42-.82-1.64-.42-.45-1.26.51-1.36.55-1.16.34-2.06-.93-2.73-1.09-1.09-.26-2.25.7-1.91-1.09l-.55,1.09c-.64-.26-1.78.93-2.18.55-.06-.05.15-1.08-.55-1.36.27-1.07-.84-1.68-.55-2.73.08-.28.88-.71,1.09-1.09.14-.25-.1-.7,0-.82.22-.27.68.55.82.55s.91-.73,2.18-1.09c.47-.14.82-1.5,2.18-1.09.22.07.34.51.55.55.66.12,1.52-.12,2.18,0,2.52.47,1.72,1.44,1.91,1.64.2.2,3.07-.2,3.27,0,.1.1-.37,1.59.82,1.09,1.66-.69.78-.19,1.64,0,.78.17,2.01-.2,2.73,0,.3.08.79,1,1.09,1.09.65.19,1.31-.23,1.91.82.2.35-.41,1.27,1.36.82.2-.05.59-.82.82-.55.1.12-.14.57,0,.82.39.68,1.86,1.34,2.73,1.36.25.22-.8.87-.55,1.09.14.13,1.12-.3,1.09.27-.78.31-.31,1.19.27,1.36,1.79.51,2.81,1.13,3.54,2.45.61,1.1,2.28,1.39,2.73,2.18.14.26-.1.72,0,.82.09.09.51-.11.82,0,.24.08.37.55.55.55s.36-.55.55-.55.32.48.55.55c.94.27,1.86-.87,3.27-.55,2.06.47,1.6-.15,3.27-.55,1.48-.35,3.72,1.46,4.09,1.09.1-.1-.1-.99,0-1.09s.52.12.82,0c.24-.1.35-.51.55-.55.87-.15,2.88-.1,3.82,0,3.19.34,7.52,1.73,10.9,2.73.4.12,1.25,1.53,1.64,1.64.9.25,2.5-.17,3.54,0-.79-.86-.35-1.73-.55-2.45-.28-1.01-1.72-2.45-2.18-3.27-.14-.26.1-.72,0-.82s-.56.14-.82,0c-1.37-.76-2.69-3.65-4.36-4.91-.71-.53-3.4-1.49-3.54-1.64-.1-.1.14-.56,0-.82-.2-.36-1.09-.9-1.09-1.09,0-.1,1.05-1-.27-1.36-.71-.2-.94.54-1.09.55-.09,0-.55-.84-1.36-.55,1.46-2.22-.99-.43-1.09-.55-.11-.12.1-.99,0-1.09s-.56.14-.82,0c-.54-.3-1.09-1.33-1.64-1.64-.26-.14-.72.1-.82,0s.14-.56,0-.82c-.26-.47-1.66-1.23-1.09-1.91.05-.06,1.64.31,1.09-.82-.13-.26-.93-.98-1.09-.82-.06.06.3,1.64-.82,1.09-1.02-.5-.65-1.31-.82-1.91-.25-.87-3.61-4.22-3.27-5.45.45-1.63-.55-1.23-.55-1.64,0-.18.54-.36.55-.55,0-.29-3.46-3.72-3.82-4.36-.26-.47.55-1.1-1.36-.82-.31-.76-2.45-1.44-2.45-1.91,0-.13,1.78-1.87,1.91-1.91,2.53-.7,1.79.97,1.91,1.09.14.14,1.4-.12,1.91,0,.48.11,2.08,1.35,2.73,1.64.28.12.73-.1,1.09,0,.46.13,1.47,2.08,1.36,2.45-1.35,1.31-.3,1.17.82,1.91.51.34-.14-1.38.82-1.09.34.87-.57,1.71-.27,2.18.41.64,1.44.52,1.91,1.36.24.42-.51,1.08,1.09.82l-1.09,1.36c.7.28.49,1.31.55,1.36.39.38,1.76-.92,2.18-.55.28.25-.91.75-.27,1.09.5.25.17.99.27,1.09.11.1.96-.11,1.09,0,.25.21-.8.88-.55,1.09.17.14,1.5-.14,1.64,0,.95.95-1.07.37,1.36,1.09,1.52.45,1.79,2.06,1.91,2.18.11.11,2.72-.24,2.73.82,0,.14-.82.6-.55.82.61.5,2.4-.87,2.73-.55.19.19-.49,1.6,1.09,1.09.21.98-.9.38-1.09.55-.17.15.61,1.03.82,1.09.94.26,2.12-.18,3.27.55.82.52.98,1.99,1.64,2.18.39.12,1.25-.12,1.36,0,.1.1-.12.52,0,.82.13.32,1.05,1.44,1.09,1.64.13.6-.16,2.3,0,2.45.13.13,1.5-.13,1.64,0,.1.1-.1.99,0,1.09s1.96.78,2.45,1.09c.85.54.78,1.62,1.64,2.18.48-.41.27-1.18,1.09-1.64.26-.14.72.1.82,0,.12-.12-.09-1.39,0-1.91.1-.58.39-1.5.55-2.18s.1-3,0-3.82c-.02-.2-.5-.33-.55-.55-.1-.52.13-1.78,0-1.91-.1-.1-.99.1-1.09,0s.14-.56,0-.82c-.16-.29-2.79-3.43-3-3.54-.97-.55-.66-.55-1.64-1.09-.79-.44-5.27-4.36-5.72-5.18-.14-.26.1-.72,0-.82s-.56.14-.82,0c-1.42-.81-1.55-3.35-1.91-4.63-.11-.41-1.32-.8-1.09-1.64.06-.23.55-.37.55-.55s-.45-.31-.55-.55c-.48-1.2.99-.71,1.09-.82.45-.45-.53-1.29-.55-1.36-.43-1.88,1.09-2.56,1.09-2.73,0-.18-.54-.36-.55-.55,0-.2,1.41-1.62,1.09-2.73-.07-.23-.55-.37-.55-.55s.54-.36.55-.55c0-.14-.82-.6-.55-.82.13-.11.96.11,1.09,0,.18-.15-1.09-1.8-1.09-1.91,0-.52.64-.08,0-2.18-.29-.95.69-1.79.55-1.91-.13-.11-.99.1-1.09,0-.13-.13.1-1.39,0-1.91-.1-.47-.96-2.21-1.09-2.73-.18-.72.38-1.63-.55-2.18l1.09-.82-.55-1.36c-.11-.78-.86.54-1.09.27-.41-.47.61-1.1.27-1.64-.91-1.43-.71-2.62-.82-2.73-.07-.07-1.39.06-1.64-.82-.34-1.23.07-1.01-.82-2.45-.45-.73-.19-1.53-.27-1.64-.22-.25-.87.8-1.09.55-.13-.14.3-1.12-.27-1.09-.38.91-1.35.03-1.36-.27,0-.09.95-.86.55-1.64.7-.28.49-1.3.55-1.36.1-.1.52.12.82,0,.5-.21,2.02-1.52,2.45-1.09.16.16-.62,1.6,1.36,1.09.2-.05.59-.82.82-.55.11.13-.1.99,0,1.09.12.12.97-.12,1.36,0,1.16.34,1.66,2.14,1.91,3,.11.38,1.64,1.38,1.64,1.64,0,.18-.5.33-.55.55-.38,1.84.44,1.15.82,1.36,1.44.82.54,2.95.82,3.27.12.14,1.24-.95,1.64-.55.14.14-.14,1.5,0,1.64.1.1.56-.14.82,0,1.23.7.59,1.63.82,2.45.07.24,1.02,1.39,1.09,1.64.21.72-.75.91-.55,1.64.09.3,1.01.79,1.09,1.09.3,1.09.26,3.4,0,4.36-.06.22-.53.36-.55.55,0,.09.95.86.55,1.64.11.78.85-.54,1.09-.27.3.34-.47,1.26-.55,1.91-.12,1.03-.16,3.39,0,4.36.03.21.55.36.55.55s-.48.32-.55.55c-.22.8,2.13,3.26,1.64,4.63.98.21.38-.91.55-1.09.23-.25.6.45.82.55.29.13.72-.1.82,0,.14.14-.14,1.47,0,1.64.21.25.88-.8,1.09-.55.1.12-.14.57,0,.82.7,1.22,1.63.09,2.73,2.18s.53.9,1.91,1.36c1.1.37,6.26,5.73,6.27,6.27,0,.14-.82.6-.55.82.13.11.99-.1,1.09,0,.13.13-.13,1.5,0,1.64.1.1.56-.14.82,0,1.39.78.27,1.27.27,1.36,0,.14,1.5,1.55,1.64,2.18.23,1.08-.16,2.09.55,3.27.37.63,1.43,1.25,1.91,1.91l1.91-3c-.05-1.72.88-3.04.55-4.91-.41-2.32-.11-2.54.55-4.91.14-.49-.95-2.21-1.09-2.73-.07-.26-.05-1.31,0-1.36.14-.15,1.31.43,1.09-.55-3.52.52-.25-1.97-.55-3-.1-.36-1.33-1.15-1.64-1.64-.03-.57.94-.15,1.09-.27.31-.25-1.09-1.18-1.09-1.36s.55-.36.55-.55-.55-.36-.55-.55c0-.31.51.19,0-1.09-.6-1.49,1.65-.15,1.64-1.36l-2.18-.82c.86-.37.41-1.78.55-1.91.4-.39,2.3,1.09,1.64-2.18l-.82,1.64c-2.08-1.55.1-2.38.27-3,.2-.71-.55-.95-.55-1.09,0-.26,1.45-4.45,1.64-4.63.3-.3.93.75,1.64-1.91.53-1.97.23-4.12.55-6,.06-.36,1.05-.39,0-1.09l-.55-3c.95.43,1.81-.55,1.91-.55.13,0,1.91,1.77,1.91,1.91s-.82.6-.55.82c.13.11.99-.1,1.09,0,.11.11-.11.96,0,1.36.25.91,1.64,2.56,1.64,2.73,0,.18-.53.35-.55.55,0,.1,1.09,1.07.55,1.91-.09.14-1.97-.43-.55.82.03.57-.95.15-1.09.27-.6.55,1.09,1.8,1.09,1.91,0,.38-3.47,2.56-.55,2.45.06.56-1.09,1.13-1.09,1.36,0,.08,1,.9.55,1.36-.07.07-1.39-.06-1.64.82-.35,1.29.8,2.32.55,3.82-.45,2.63.13,1.76.55,3.27s-.67,2.9-.55,3c.13.11.99-.1,1.09,0,.09.09-.11.51,0,.82.08.24.55.37.55.55s-.5.33-.55.55c-.44,2.08,1.31,1.08,1.64,2.18.37,1.28-1.55,1.28-1.64,1.36-.68.68,1.77,2.35,2.18,3,.07.11-.08.37,0,.55.11.24.55.38.55.55,0,.18-.55.36-.55.55s.55.36.55.55c0,.2-1.09.89-1.09,1.09s1.01.79,1.09,1.09c.16.59-.82,1.6-1.09,2.18-.13.27.1.73,0,1.09-.09.3-1.01.79-1.09,1.09-.03.12.43,1.76.55,2.18.24.89.28,1.94.55,3.27.1.52-.14,1.75,0,1.91.22.26.66-.75,1.36-.55.22.06.33.49.55.55.8.22,1.08-.78,1.64-1.09.26-.14.72.1.82,0s-.1-.99,0-1.09.56.14.82,0c.42-.23,2.63-2.5,3-3,.08-.11-.09-.42,0-.55.37-.55,1.3-.88,1.09-1.64-.06-.23-.55-.37-.55-.55s.55-.36.55-.55-.55-.36-.55-.55c0-.23,1.17-3.53,1.09-3.82-.56-2.05-.23-4.25-1.09-7.09-.22-.71.34-.95,0-2.18-.2-.72.47-.84.55-1.09.21-.72-.75-.91-.55-1.64.06-.21.48-.33.55-.55.21-.69.18-.84.55-1.64s2.13-4.63,3-4.63c.14,0,.6.82.82.55.1-.12-.14-.56,0-.82.85-1.52,3.78-2.6,5.18-3,1.31-.37.19-1.57.27-1.64,1.15-.95,3.15-1.4,3.82-3,.83-1.97,2.59-3.07,3.27-5.45.13-.47,2.01-1.85,1.64-3,.22-.25.88.8,1.09.55.07-.09-.06-.49,0-.82.11-.59.95-.13,1.09-.27.06-.06.22-.99-.27-1.09-.56-.12-.95.32-.82-.55.56.23,1.64-.52,1.64-.82,0-.17-.45-.31-.55-.55-.54-1.35,1.42-.61,1.64-.82.45-.42-.51-1.26-.55-1.36-.34-1.16.93-2.06,1.09-2.73.26-1.09-.7-2.25,1.09-1.91l-1.09-.55c.26-.64-.93-1.78-.55-2.18.05-.06,1.08.15,1.36-.55,1.07.27,1.68-.84,2.73-.55.28.08.71.88,1.09,1.09.25.14.7-.1.82,0h0Z"/>
</svg>