<?xml version="1.0" encoding="UTF-8"?>
<svg id="Layer_1" data-name="Layer 1" xmlns="http://www.w3.org/2000/svg" viewBox="0 0 212.96 217.24">
  <path d="M109.33.12c.1.1-.1.99,0,1.09.13.13,2.27-.76,3.54-.55,4.55.76,11.75-.1,17.44,1.09,4.55.95,9.51,1.99,14.17,3.27.99.27,3.01,1.56,3.27,1.64.73.2,2-.2,2.73,0,.3.08.79,1,1.09,1.09.97.28,2.37.27,3,1.36.14.25-.1.7,0,.82.22.27.68-.55.82-.55.22,0,.79,1.01,1.09,1.09,2.84.78,5.05,1.92,7.63,2.73.34.11.78-.11,1.09,0s.46.83,1.36.55l.55,2.18c.98.21.38-.91.55-1.09.24-.26.6.47.82.55,4.01,1.34,4.98,3.42,8.18,6,1.78,1.43,6.15,3.97,8.18,4.91,1.74.81,1.46,1.48,2.73,2.18,2.24,1.25,5.95,6.33,7.36,8.45.56.85,3.11,2.73,3.27,3.27.57,1.93.62.92,1.64,2.73,1.49,2.64,3.51,4.48,4.36,7.63.13.47-.13,1.17,0,1.64.3,1.09,4.14,2.7,2.73,4.09,1.59-.22.86.26,1.09.82.85,2.04.95,4.07,1.64,6,.73,2.08,1.69,3.58,2.18,6,.26,1.27.23,3.06.55,4.36.36,1.51.27,2.29.55,3.27.2.71-.55.95-.55,1.09,0,.18.48.32.55.55.38,1.31-1.11,2.07-1.91,3-1.06-.27-1.71.85-2.73.55-.52-.15-2.35-2.23-1.91-3l-1.09.27.55-3.27-1.09.27c-.38-1.44,1.15-.23,1.09-1.36-1.76.26-2.88-1.61-4.36-2.45,2.06-1.51.15-1.47-.55-2.73-.14-.26.1-.72,0-.82-.26-.26-1.63.8-1.09-2.18-1.6.48-.9-.9-1.09-1.09-.07-.07-1.06.18-1.64-.82-.31-.54.6-1.32-1.09-.27l-.55-2.45c-.98-.37-1.01-1.82-1.09-1.91-.42-.42-.75.77-1.64-.82-.69-1.23-2.08-1.27-2.18-1.36-.12-.12.12-.97,0-1.36-.2-.66-1.07-.29-1.64-1.64-.16-.38-.93-1.26-1.09-1.64-.12-.29.1-.72,0-.82-.19-.19-2.54.19-2.73,0-.07-.07.19-.99-.82-1.64-.74-.47-2.55-2.13-2.73-2.18-.67-.19-4.98-1.43-5.18-1.64-.1-.1.1-.99,0-1.09-.36-.36-2.89-.1-2.18-1.64-.82.46-3.72-1.21-3.27-1.64.23-.22,1.81.53,1.64-.55l-2.73.27c-.76.93-1.8-.27-1.91-.27-.18,0-.32.48-.55.55-1.37.38-4.43-2.51-5.45-2.73-1.51-.32-4.03.89-3.54-1.09-1.12,1.22-2.79-.55-3-.55-1.22,0-3.23.37-5.45,0-1.69-.28-2.97-.56-4.91,0-.56.16-1.5-.96-1.91-.55-.12.12.3,1.12-.27,1.09l-1.91-1.09v1.09c-1.17-.87-.94-.12-1.36,0-.72.21-.91-.75-1.64-.55-.22.06-.33.48-.55.55-.33.1-.75-.1-1.09,0-1.01.29-.53,2.89-2.18,1.09-.85.66-1.82,1.03-2.73,1.64-.51.34.14-1.38-.82-1.09.29,1.72-.51.82-1.36,1.09-.38.12-1.14,1.32-1.64,1.64-.57.03-.15-.95-.27-1.09-.23-.26-.66.75-1.36.55-1.01-.29-.87-1.32-.82,1.09-.22.27-.68-.55-.82-.55-.95,0-2.87,1.87-3.82,2.18-.38.13-1.24-.12-1.36,0-.1.1.1.99,0,1.09-.17.17-1.87-.16-2.45,0-.46.13-4.43,4.23-4.91,4.36-2.36.68-2.49,1.14-4.36,2.18-.26.14-.72-.1-.82,0-.29.29.69,1.81-1.09.55.18.74-.71,1.82-1.36,2.18-1.21.68-2.74,2.93-4.36,4.36-1.19,1.05-1.32.68-2.45,2.45s-3.69-.15-2.18,1.91c-.55-.17-1.5.34-1.64.82-.02.07,1.06.58-.27,1.36l-.55-1.09c-.27.42-1.28,1.06-1.36,1.36-.55,1.99,1.38,3.53-2.18,3,1.73,2.07-1.37,2.04-1.64,3-.2.71.55.95.55,1.09,0,.1-1.15,1.24-1.36,1.36-.25.14-.7-.1-.82,0-.27.22.55.68.55.82,0,.22-1,.78-1.09,1.09-.26.9,1.85,1.58-1.09,1.36l.55,1.09h-1.64c.04.96-.29,1.89.55,2.45.03.57-.95.15-1.09.27s.83.94.55,1.91c-.09.31-1.01.79-1.09,1.09-.14.49.15,1.76,0,1.91-.1.1-.99-.1-1.09,0-.69.69,0,1.79,0,1.91,0,.1-1.09,1.54-1.09,1.64,0,.17.45.31.55.55.55,1.39-2.1.29-.55,1.64l-2.18,3.82c-.07.74-.09,1.21.55,1.64.03.57-.96.15-1.09.27-.46.44.55,1.29.55,1.36,0,.12-.86.81-.55,2.18.55,2.38.07,5.04.55,7.63.32,1.76-.82,4.91-.55,6.54.04.21.54.36.55.55,0,.07-1.01.92-.55,1.36.13.12,1.12-.3,1.09.27-1.38,1.36.83,3.85,1.64,5.45l-.55.82h1.09c.3.83-.54,1.24-.55,1.36,0,.1,1.09,1.54,1.09,1.64,0,.12-.69,1.22,0,1.91.1.1.99-.1,1.09,0,.15.15-.14,1.41,0,1.91.15.56,2.2,1.42.55,2.73l1.09.27c-.92,1.76-1.16,3.2,1.09,2.73l-.55,1.09h1.64c-1.41,1.5.54,2.07.55,2.45,0,.14-.82.6-.55.82.12.1.56-.14.82,0,.21.12,1.36,1.27,1.36,1.36,0,.14-.74.38-.55,1.09.26.96,3.37.93,1.64,3h2.18c-.06,1.9-.33,3.21,1.36,4.36l.55-1.09c1.33.78.25,1.3.27,1.36.33,1.19,2.51.2,1.09,1.91,1.15-.03,2.06-.23,2.73.82,1.57,2.46,4.83,3.9,6,6,.14.26-.1.72,0,.82s1.49.13,2.18,1.36c.31.55-.59,1.32,1.09.27-.27,1.6.39.85.82,1.09,1.84,1.03,1.97,1.49,4.36,2.18.48.14,4.45,4.24,4.91,4.36.58.16,2.28-.17,2.45,0,.1.1-.1.99,0,1.09.12.12.98-.13,1.36,0,.95.31,2.87,2.17,3.82,2.18.34,0,1.02-1.7.82,1.09.92-1.08,2.1.09,2.18,0,.13-.14-.3-1.12.27-1.09.49.31,1.26,1.52,1.64,1.64.85.27,1.66-.63,1.36,1.09.99.2.38-.91.55-1.09s2.83,1.64,3,1.64c.65-.01.36-1.5,1.36.27.61,1.06,1.31.62,1.91.82.26.08.37.74,1.09.55.24-.07.37-.74,1.09-.55.23.06.37.54.55.55.14,0,.59-.81.82-.55.13.15-.3,1.12.27,1.09l1.91-1.09v1.09c.92.27,1.22-.74,1.91-.55,2.58.72,5.9,0,9.27,0,.74,0,2.35-.93,3.27-1.09,1.29,1.41.61-.33.82-.55.2-.2,2.78.16,3.54,0s2.4-1.83,3.27-2.18c1.26-.5,2.6-.03,3.27-.55l4.09.55c.17-1.11-2-.19-1.64-.82.2-.35,1.58-1.26,1.91-1.36.38-.13,1.24.12,1.36,0,.1-.1-.1-.99,0-1.09.08-.08,2.1-.46,2.18-.55.1-.11-.1-.99,0-1.09.12-.12.98.13,1.36,0,1.37-.45,1.73-1.06,3.82-1.64.17-.05,1.99-1.71,2.73-2.18,1.01-.64.75-1.57.82-1.64.19-.19,2.54.19,2.73,0,.1-.1-.12-.52,0-.82.16-.38.93-1.26,1.09-1.64.56-1.35,1.44-.97,1.64-1.64.12-.39-.12-1.25,0-1.36.1-.1,1.49-.13,2.18-1.36.89-1.59,1.22-.4,1.64-.82.1-.1-.14-.56,0-.82.54-.97,2.06-1.88,1.64-3.54l1.09.55c-.45-1.58,1.52-1.52,1.64-1.64.1-.1-.1-.99,0-1.09.26-.26,1.63.8,1.09-2.18,1.6.27.85-.39,1.09-.82.7-1.25,2.6-1.22.55-2.73,1.48-.84,2.6-2.71,4.36-2.45.06-1.14-1.47.08-1.09-1.36l1.09.27-.55-3.27,1.09.27c-.44-.76,1.39-2.84,1.91-3,1.02-.3,1.67.82,2.73.55.8.93,2.28,1.69,1.91,3-.07.23-.55.37-.55.55,0,.14.74.38.55,1.09-.27.99-.18,1.76-.55,3.27-.51,2.15-.54,5.09-1.09,7.09-.04.15-.93,1.84-1.09,2.18-1.03,2.19-1.23,4.82-2.18,7.09-.23.55.5,1.04-1.09.82,1.42,1.39-2.43,3-2.73,4.09-.13.46.13,1.17,0,1.64-.85,3.15-2.87,4.99-4.36,7.63-1.02,1.8-1.06.8-1.64,2.73-.16.54-2.71,2.42-3.27,3.27-1.41,2.12-5.12,7.2-7.36,8.45-1.26.7-.99,1.37-2.73,2.18-4.12,1.91-8.44,5.25-11.99,8.18-2.16,1.78-1.6,1.81-4.36,2.73-.18.06-.31.39-.55.55-.51.34.14-1.38-.82-1.09l-.55,2.18c-.9-.29-1.04.43-1.36.55s-.75-.11-1.09,0c-2.59.81-4.8,1.95-7.63,2.73-.3.08-.87,1.09-1.09,1.09-.14,0-.6-.82-.82-.55-.32.39.52.75-1.36,1.64-.66.31-2.56,1.59-2.73,1.64-.73.2-2-.2-2.73,0-.26.07-2.28,1.36-3.27,1.64-5.48,1.51-10.83,2.29-16.35,3.27-2.72.48-9.25,1.55-11.99,1.09-1.2-.2-2.07-.2-3.27,0-1.28.21-3.41-.68-3.54-.55-.17.17.6,1.63-1.36,1.09-.21-.06-.33-.48-.55-.55-.7-.2-1.14.8-1.36.55-.13-.14.3-1.12-.27-1.09-.81,1.24-1.61-.32-2.73,0-1.58.45-5.09-.02-7.09-.55-2.21-.58-6.31-.11-9.27-.55-1.64-.24-3.28-1.43-4.91-2.18-1.14-.53-2.64-.77-3.82-1.09-1.12-.31.06-1.17-2.18-.55-.61.17-2.05-1.09-2.18-1.09-.17,0-.31.45-.55.55-1.21.48-.71-.99-.82-1.09-.17-.17-1.87.16-2.45,0-.3-.08-.79-1-1.09-1.09-.72-.21-3.87-.87-4.09-1.09-.3-.3.76-.43-.82-1.09-2.12-.88-3.07-2.05-4.91-3.27s-13.38-7.53-13.9-8.45c-.9-1.6-3.65-2.02-4.36-3.27-.83-1.47-.8-.53-1.09-.82-.1-.1.1-.99,0-1.09s-1.49-.13-2.18-1.36c-1.36-2.44-6.96-6.95-9.81-10.36-.87-1.04-2-3.79-3.27-3.54l-.55-2.73-1.09.55c.28-1.03-.62-1.24-1.09-1.91-3.32-4.73-7.41-8.91-9.81-14.18-.51-1.11-.45-2.36-.55-2.45-.16-.16-1.6.62-1.09-1.36.05-.2.82-.59.55-.82-.09-.07-1,.18-1.64-.82-.85-1.32-1.77-3.92-2.18-5.45-.29-1.1-4.57-12.88-4.36-13.63.67-2.44-1.14-4.24-1.64-6.54-.3-1.37.3-3.55,0-4.91-.59-2.65-1.24-14.89-.55-19.08.34-2.05.08-6.36,1.09-9.27.62-1.8,1.53-3.85,1.09-5.45-.15-.55,2.85-9.03,3.27-10.36.77-2.4,1.54-6.05,3.27-8.72.64-1,1.54-.74,1.64-.82.27-.22-.49-.62-.55-.82-.51-1.98.93-1.21,1.09-1.36.09-.09.04-1.34.55-2.45,2.38-5.24,6.59-9.58,9.81-14.18.27-.39.89-.73,1.09-1.09.31-.55-.59-1.32,1.09-.27l.55-2.73c1.27.24,2.4-2.5,3.27-3.54,1.66-1.98,8.04-7.5,8.72-8.72.17-.31,1.79-2.63,2.45-3,1.48-.82.52-.8.82-1.09s.26.65,1.09-.82c.71-1.25,3.46-1.68,4.36-3.27.45-.79,13.06-8.47,14.99-9.54,1.15-.64,1.81-1.34,3.82-2.18,1.41-.59.23-.5,1.64-1.09.94-.39,3.94-2.06,4.36-2.18,1.22-.34,2.87.82,2.45-1.09.83-.3,1.24.54,1.36.55.1,0,1.39-1.02,1.64-1.09.72-.21.91.75,1.64.55.3-.09.79-1.01,1.09-1.09.46-.13,1.17.13,1.64,0,.71-.2,3.78-2.42,4.91-2.73,2.14-.58,4.9-.69,7.09-1.09,1.42-.26,2,.34,3.27,0,2.02-.54,6.68-.97,8.18-.55,1.09.31,1.37-.47,1.64-.55.7-.2,1.14.8,1.36.55.13-.14-.3-1.12.27-1.09.58,1.26,2.4-.59,3,0Z"/>
</svg>